<svg data-v-fde0c5aa="" xmlns="http://www.w3.org/2000/svg" viewBox="0 0 300 300" class="iconAboveSlogan"><!----><defs data-v-fde0c5aa=""><!----></defs><rect data-v-fde0c5aa="" fill="#732924" x="0" y="0" width="300px" height="300px" class="logo-background-square"></rect><defs data-v-fde0c5aa=""><!----></defs><g data-v-fde0c5aa="" id="ab0c0a19-f7ca-4dac-95fa-f3a86f21d9be" fill="#ffffff" transform="matrix(1.8084441807620588,0,0,1.8084441807620588,18.35431574807816,142.46245165090858)"><path d="M6.50 17.02Q5.99 17.22 5.43 17.30Q4.87 17.39 4.12 17.39L4.12 17.39Q2.79 17.39 2.11 16.99Q1.44 16.59 1.18 15.63Q0.91 14.67 0.91 12.81L0.91 12.81Q0.91 10.93 1.18 9.97Q1.46 9.00 2.16 8.61Q2.87 8.22 4.26 8.22L4.26 8.22Q4.73 8.22 5.34 8.30Q5.95 8.39 6.31 8.51L6.31 8.51L6.13 9.66Q5.64 9.55 5.00 9.48Q4.35 9.41 3.95 9.41L3.95 9.41Q3.09 9.41 2.75 9.62Q2.41 9.83 2.41 10.47L2.41 10.47L2.41 16.02Q3.12 16.23 4.07 16.23L4.07 16.23Q5.17 16.23 6.36 15.88L6.36 15.88L6.50 17.02ZM13.65 10.18L13.65 17.18L13.01 17.18L12.63 16.48Q12.07 16.91 11.40 17.12Q10.74 17.32 9.88 17.32L9.88 17.32Q8.93 17.32 8.48 16.96Q8.04 16.60 8.04 15.85L8.04 15.85L8.04 10.18L9.44 10.18L9.44 16.24L11.06 16.24Q11.75 16.24 12.00 16.07Q12.25 15.90 12.25 15.43L12.25 15.43L12.25 10.18L13.65 10.18ZM15.69 12.05Q15.69 10.98 16.33 10.47Q16.97 9.97 18.34 9.97L18.34 9.97Q19.56 9.97 20.66 10.28L20.66 10.28L20.47 11.30Q20.12 11.20 19.64 11.14Q19.17 11.07 18.76 11.07L18.76 11.07Q17.92 11.07 17.16 11.20L17.16 11.20L17.16 12.85Q18.84 13.09 19.64 13.34Q20.43 13.58 20.72 13.99Q21.01 14.41 21.01 15.20L21.01 15.20Q21.01 16.00 20.73 16.48Q20.44 16.95 19.80 17.17Q19.15 17.39 18.07 17.39L18.07 17.39Q16.87 17.39 15.54 16.98L15.54 16.98L15.76 15.86Q16.84 16.28 18.06 16.28L18.06 16.28Q18.48 16.28 18.80 16.24Q19.12 16.20 19.54 16.09L19.54 16.09L19.54 14.43Q17.74 14.18 16.97 13.94Q16.20 13.71 15.95 13.31Q15.69 12.91 15.69 12.05L15.69 12.05ZM25.97 11.14L24.72 11.14L24.72 16.14Q25.23 16.20 25.72 16.21L25.72 16.21L25.63 17.16Q24.85 17.32 24.36 17.32L24.36 17.32Q23.83 17.32 23.58 17.06Q23.32 16.80 23.32 16.27L23.32 16.27L23.32 11.14L22.34 11.14L22.34 10.18L23.32 10.18L23.32 8.68L24.72 8.33L24.72 10.18L25.97 10.18L25.97 11.14ZM30.48 17.32Q29.22 17.32 28.58 17.02Q27.94 16.72 27.69 15.95Q27.44 15.18 27.44 13.68L27.44 13.68Q27.44 12.18 27.69 11.41Q27.94 10.64 28.58 10.34Q29.22 10.04 30.48 10.04L30.48 10.04Q31.75 10.04 32.38 10.34Q33.01 10.64 33.26 11.40Q33.52 12.17 33.52 13.68L33.52 13.68Q33.52 15.18 33.26 15.95Q33.01 16.72 32.38 17.02Q31.74 17.32 30.48 17.32L30.48 17.32ZM28.90 16.17L31.39 16.17Q31.79 16.17 31.93 16.10Q32.06 16.03 32.06 15.82L32.06 15.82L32.06 11.19L29.57 11.19Q29.16 11.19 29.03 11.26Q28.90 11.33 28.90 11.54L28.90 11.54L28.90 16.17ZM43.16 10.04Q44.14 10.04 44.65 10.34Q45.15 10.64 45.15 11.23L45.15 11.23L45.15 17.18L43.75 17.18L43.75 11.19L42.27 11.19Q41.65 11.19 41.40 11.31Q41.15 11.44 41.09 11.77L41.09 11.77L41.09 17.18L39.69 17.18L39.69 11.19L38.21 11.19Q37.52 11.19 37.27 11.35Q37.02 11.52 37.02 12.00L37.02 12.00L37.02 17.18L35.62 17.18L35.62 10.18L36.26 10.18L36.64 10.88Q37.14 10.44 37.74 10.24Q38.33 10.04 39.10 10.04L39.10 10.04Q40.54 10.04 40.95 10.68L40.95 10.68Q41.86 10.04 43.16 10.04L43.16 10.04ZM52.84 17.02Q52.33 17.22 51.77 17.30Q51.21 17.39 50.46 17.39L50.46 17.39Q49.13 17.39 48.45 16.99Q47.78 16.59 47.52 15.63Q47.25 14.67 47.25 12.81L47.25 12.81Q47.25 10.93 47.52 9.97Q47.80 9.00 48.50 8.61Q49.21 8.22 50.60 8.22L50.60 8.22Q51.07 8.22 51.68 8.30Q52.29 8.39 52.65 8.51L52.65 8.51L52.47 9.66Q51.98 9.55 51.34 9.48Q50.69 9.41 50.29 9.41L50.29 9.41Q49.43 9.41 49.09 9.62Q48.75 9.83 48.75 10.47L48.75 10.47L48.75 16.02Q49.46 16.23 50.41 16.23L50.41 16.23Q51.51 16.23 52.70 15.88L52.70 15.88L52.84 17.02ZM55.10 10.18L55.59 11.28Q56.22 10.72 56.67 10.42Q57.12 10.11 57.51 9.97L57.51 9.97L57.65 11.34Q57.19 11.48 56.69 11.73Q56.20 11.97 55.85 12.24L55.85 12.24L55.85 17.18L54.45 17.18L54.45 10.18L55.10 10.18ZM61.73 10.04Q62.69 10.04 63.25 10.23Q63.81 10.42 64.06 10.84Q64.30 11.27 64.30 12.00L64.30 12.00L64.30 17.18L63.66 17.18L63.28 16.48Q62.78 16.91 62.17 17.12Q61.56 17.32 60.77 17.32L60.77 17.32Q59.61 17.32 59.12 16.84Q58.63 16.35 58.63 15.22L58.63 15.22Q58.63 14.20 58.91 13.75Q59.19 13.30 60.01 13.15Q60.83 12.99 62.69 12.99L62.69 12.99L62.90 12.99L62.90 11.30Q62.38 11.14 61.49 11.14L61.49 11.14Q60.37 11.14 59.12 11.48L59.12 11.48L58.94 10.46Q59.46 10.28 60.23 10.16Q61.00 10.04 61.73 10.04L61.73 10.04ZM61.78 16.24Q62.44 16.24 62.67 16.07Q62.90 15.90 62.90 15.43L62.90 15.43L62.90 13.90L61.04 13.90Q60.38 13.90 60.14 14.07Q59.91 14.24 59.91 14.71L59.91 14.71L59.91 16.24L61.78 16.24ZM70.07 8.88L68.57 8.75L68.57 10.18L69.69 10.18L69.69 11.14L68.57 11.14L68.57 17.18L67.17 17.18L67.17 11.14L66.19 11.14L66.19 10.18L67.17 10.18Q67.23 9.21 67.40 8.69Q67.56 8.16 67.91 7.95Q68.25 7.73 68.87 7.73L68.87 7.73Q69.54 7.73 70.15 7.87L70.15 7.87L70.07 8.88ZM74.48 11.14L73.23 11.14L73.23 16.14Q73.74 16.20 74.23 16.21L74.23 16.21L74.14 17.16Q73.36 17.32 72.87 17.32L72.87 17.32Q72.34 17.32 72.09 17.06Q71.83 16.80 71.83 16.27L71.83 16.27L71.83 11.14L70.85 11.14L70.85 10.18L71.83 10.18L71.83 8.68L73.23 8.33L73.23 10.18L74.48 10.18L74.48 11.14ZM85.11 17.02Q84.60 17.22 84.04 17.30Q83.48 17.39 82.73 17.39L82.73 17.39Q81.40 17.39 80.72 16.99Q80.05 16.59 79.79 15.63Q79.52 14.67 79.52 12.81L79.52 12.81Q79.52 10.93 79.79 9.97Q80.07 9.00 80.77 8.61Q81.48 8.22 82.87 8.22L82.87 8.22Q83.34 8.22 83.95 8.30Q84.56 8.39 84.92 8.51L84.92 8.51L84.74 9.66Q84.25 9.55 83.61 9.48Q82.96 9.41 82.56 9.41L82.56 9.41Q81.70 9.41 81.36 9.62Q81.02 9.83 81.02 10.47L81.02 10.47L81.02 16.02Q81.73 16.23 82.68 16.23L82.68 16.23Q83.78 16.23 84.97 15.88L84.97 15.88L85.11 17.02ZM89.32 10.04Q90.29 10.04 90.85 10.23Q91.41 10.42 91.65 10.84Q91.90 11.27 91.90 12.00L91.90 12.00L91.90 17.18L91.25 17.18L90.87 16.48Q90.37 16.91 89.76 17.12Q89.15 17.32 88.37 17.32L88.37 17.32Q87.21 17.32 86.72 16.84Q86.23 16.35 86.23 15.22L86.23 15.22Q86.23 14.20 86.51 13.75Q86.79 13.30 87.61 13.15Q88.42 12.99 90.29 12.99L90.29 12.99L90.50 12.99L90.50 11.30Q89.98 11.14 89.08 11.14L89.08 11.14Q87.96 11.14 86.72 11.48L86.72 11.48L86.53 10.46Q87.05 10.28 87.82 10.16Q88.59 10.04 89.32 10.04L89.32 10.04ZM89.38 16.24Q90.03 16.24 90.27 16.07Q90.50 15.90 90.50 15.43L90.50 15.43L90.50 13.90L88.63 13.90Q87.98 13.90 87.74 14.07Q87.50 14.24 87.50 14.71L87.50 14.71L87.50 16.24L89.38 16.24ZM95.00 10.18L95.49 11.28Q96.12 10.72 96.57 10.42Q97.02 10.11 97.41 9.97L97.41 9.97L97.55 11.34Q97.09 11.48 96.59 11.73Q96.10 11.97 95.75 12.24L95.75 12.24L95.75 17.18L94.35 17.18L94.35 10.18L95.00 10.18ZM102.37 10.04Q103.42 10.04 103.95 10.34Q104.48 10.64 104.69 11.40Q104.89 12.17 104.89 13.68L104.89 13.68Q104.89 15.20 104.68 15.98Q104.47 16.76 103.94 17.07Q103.40 17.39 102.37 17.39L102.37 17.39Q101.67 17.39 101.21 17.31Q100.74 17.23 100.42 17.05L100.42 17.05L100.42 19.49L99.02 19.66L99.02 10.18L99.67 10.18L99.99 10.77Q100.28 10.35 100.83 10.19Q101.37 10.04 102.37 10.04L102.37 10.04ZM103.42 15.89L103.42 11.19L101.07 11.19Q100.70 11.19 100.56 11.25Q100.42 11.31 100.42 11.47L100.42 11.47L100.42 16.24L102.77 16.24Q103.15 16.24 103.28 16.17Q103.42 16.10 103.42 15.89L103.42 15.89ZM109.54 16.21Q110.11 16.21 110.66 16.14Q111.20 16.06 111.96 15.88L111.96 15.88L112.14 16.90Q111.62 17.09 110.86 17.21Q110.10 17.32 109.28 17.32L109.28 17.32Q108.19 17.32 107.62 17.00Q107.04 16.69 106.81 15.92Q106.57 15.15 106.57 13.68L106.57 13.68Q106.57 12.26 106.84 11.49Q107.11 10.71 107.74 10.37Q108.37 10.04 109.52 10.04L109.52 10.04Q110.66 10.04 111.25 10.22Q111.85 10.40 112.08 10.84Q112.32 11.28 112.32 12.14L112.32 12.14Q112.32 13.16 112.03 13.61Q111.73 14.06 110.87 14.21Q110.01 14.36 108.04 14.36L108.04 14.36L108.04 16.06Q108.60 16.21 109.54 16.21L109.54 16.21ZM109.20 11.19Q108.53 11.19 108.28 11.35Q108.04 11.52 108.04 12.00L108.04 12.00L108.04 13.45L109.89 13.45Q110.57 13.45 110.82 13.29Q111.06 13.12 111.06 12.64L111.06 12.64L111.06 11.19L109.20 11.19ZM114.56 17.18L114.56 10.18L115.21 10.18L115.58 10.88Q116.12 10.44 116.75 10.24Q117.38 10.04 118.19 10.04L118.19 10.04Q119.17 10.04 119.67 10.34Q120.18 10.64 120.18 11.23L120.18 11.23L120.18 17.18L118.78 17.18L118.78 11.19L117.15 11.19Q116.47 11.19 116.21 11.35Q115.96 11.52 115.96 12.00L115.96 12.00L115.96 17.18L114.56 17.18ZM125.69 11.14L124.45 11.14L124.45 16.14Q124.95 16.20 125.44 16.21L125.44 16.21L125.36 17.16Q124.57 17.32 124.08 17.32L124.08 17.32Q123.55 17.32 123.30 17.06Q123.05 16.80 123.05 16.27L123.05 16.27L123.05 11.14L122.07 11.14L122.07 10.18L123.05 10.18L123.05 8.68L124.45 8.33L124.45 10.18L125.69 10.18L125.69 11.14ZM130.13 16.21Q130.70 16.21 131.25 16.14Q131.80 16.06 132.55 15.88L132.55 15.88L132.73 16.90Q132.22 17.09 131.45 17.21Q130.69 17.32 129.88 17.32L129.88 17.32Q128.79 17.32 128.21 17.00Q127.64 16.69 127.40 15.92Q127.16 15.15 127.16 13.68L127.16 13.68Q127.16 12.26 127.43 11.49Q127.71 10.71 128.34 10.37Q128.97 10.04 130.12 10.04L130.12 10.04Q131.25 10.04 131.84 10.22Q132.44 10.40 132.68 10.84Q132.92 11.28 132.92 12.14L132.92 12.14Q132.92 13.16 132.62 13.61Q132.33 14.06 131.47 14.21Q130.61 14.36 128.63 14.36L128.63 14.36L128.63 16.06Q129.19 16.21 130.13 16.21L130.13 16.21ZM129.79 11.19Q129.12 11.19 128.88 11.35Q128.63 11.52 128.63 12.00L128.63 12.00L128.63 13.45L130.48 13.45Q131.17 13.45 131.41 13.29Q131.66 13.12 131.66 12.64L131.66 12.64L131.66 11.19L129.79 11.19ZM135.81 10.18L136.30 11.28Q136.93 10.72 137.38 10.42Q137.83 10.11 138.22 9.97L138.22 9.97L138.36 11.34Q137.90 11.48 137.40 11.73Q136.91 11.97 136.56 12.24L136.56 12.24L136.56 17.18L135.16 17.18L135.16 10.18L135.81 10.18ZM139.36 12.05Q139.36 10.98 139.99 10.47Q140.63 9.97 142.00 9.97L142.00 9.97Q143.22 9.97 144.33 10.28L144.33 10.28L144.13 11.30Q143.78 11.20 143.30 11.14Q142.83 11.07 142.42 11.07L142.42 11.07Q141.58 11.07 140.83 11.20L140.83 11.20L140.83 12.85Q142.51 13.09 143.30 13.34Q144.09 13.58 144.38 13.99Q144.68 14.41 144.68 15.20L144.68 15.20Q144.68 16.00 144.39 16.48Q144.10 16.95 143.46 17.17Q142.81 17.39 141.74 17.39L141.74 17.39Q140.53 17.39 139.20 16.98L139.20 16.98L139.43 15.86Q140.50 16.28 141.72 16.28L141.72 16.28Q142.14 16.28 142.46 16.24Q142.79 16.20 143.21 16.09L143.21 16.09L143.21 14.43Q141.40 14.18 140.63 13.94Q139.86 13.71 139.61 13.31Q139.36 12.91 139.36 12.05L139.36 12.05Z"></path></g><defs data-v-fde0c5aa=""><!----></defs><g data-v-fde0c5aa="" id="2e9989df-3df5-4d57-885e-4d12abb476c4" stroke="none" fill="#E3A489" transform="matrix(0.7498030331221833,0,0,0.7498030331221833,112.30102840725105,107.67056148382277)"><path d="M45.295 1.626a.954.954 0 00-.953-.953h-4.11a.954.954 0 00-.954.953v1.147l6.017 4.683v-5.83zM61.346 1.626a.953.953 0 00-.953-.953h-4.11a.954.954 0 00-.953.953v5.831l6.017-4.683V1.626z"></path><path d="M99.326 38.598h-3.478V26.439h3.297c.311 0 .408-.419.128-.556l-8.371-5.109a5.506 5.506 0 00-2.412-.556h-2.1v-1.511h4.815a.496.496 0 00.282-.903l-.877-.604L68.873.365a2.301 2.301 0 00-2.612 0l-15.982 12.36L34.296.365a2.303 2.303 0 00-2.613 0L9.946 17.2l-.877.605a.495.495 0 00.281.903h4.816v1.511h-2.1c-.835 0-1.661.19-2.412.556l-8.372 5.109c-.28.136-.183.556.128.556h3.297v12.159H1.23a.952.952 0 00-.952.952v.535c0 .526.433.953.953.953h98.194c.442 0 .854-.427.854-.953v-.536a.953.953 0 00-.953-.952zM68.834 14.06l5.573-4.409a.49.49 0 01.669 0l5.572 4.409a.18.18 0 01-.123.312h-1.397l-4.387-3.301-4.387 3.301h-1.397a.18.18 0 01-.123-.312zm8.613 3.239h-1.933a.457.457 0 01-.456-.458v-1.339c0-.253.204-.458.456-.458h1.933c.253 0 .457.205.457.458v1.339a.456.456 0 01-.457.458zm.457 1.181v1.339a.457.457 0 01-.457.457h-1.933a.457.457 0 01-.456-.457V18.48c0-.252.204-.457.456-.457h1.933c.253 0 .457.205.457.457zm-3.967-1.181h-1.933a.459.459 0 01-.458-.458v-1.339c0-.253.206-.458.458-.458h1.933c.253 0 .457.205.457.458v1.339a.457.457 0 01-.457.458zm.457 1.181v1.339a.457.457 0 01-.457.457h-1.933a.458.458 0 01-.458-.457V18.48c0-.252.206-.457.458-.457h1.933c.252 0 .457.205.457.457zm-54.486-4.42l5.573-4.409a.489.489 0 01.668 0l5.573 4.409a.18.18 0 01-.123.312h-1.397l-4.387-3.301-4.387 3.301h-1.397a.18.18 0 01-.123-.312zm8.645 3.239H26.62a.458.458 0 01-.457-.458v-1.339c0-.253.204-.458.457-.458h1.933c.252 0 .458.205.458.458v1.339a.459.459 0 01-.458.458zm.457 1.181v1.339a.458.458 0 01-.458.457H26.62a.458.458 0 01-.457-.457V18.48c0-.252.204-.457.457-.457h1.933c.252 0 .457.205.457.457zm-3.968-1.181H23.11a.458.458 0 01-.458-.458v-1.339c0-.253.205-.458.458-.458h1.932c.252 0 .458.205.458.458v1.339a.459.459 0 01-.458.458zm.457 1.181v1.339a.458.458 0 01-.458.457h-1.932a.458.458 0 01-.458-.457V18.48c0-.252.205-.457.458-.457h1.932c.253 0 .458.205.458.457zm-2.231 20.118H9.028v-9.614a9.782 9.782 0 017.576-3.059 9.746 9.746 0 012.711.514 9.695 9.695 0 013.953 2.545v9.614zm15.701 0H24.946v-9.614a9.678 9.678 0 013.953-2.545 9.775 9.775 0 012.712-.514h-.265a16.47 16.47 0 011.176 0 9.739 9.739 0 016.447 2.842v9.831zm.856-18.779a.458.458 0 01-.458.457h-1.932a.458.458 0 01-.458-.457V18.48c0-.252.205-.457.458-.457h1.932c.252 0 .458.205.458.457v1.339zm0-2.977a.458.458 0 01-.458.458h-1.932a.458.458 0 01-.458-.458v-1.339c0-.253.205-.458.458-.458h1.932c.252 0 .458.205.458.458v1.339zm.664 2.977V18.48c0-.252.205-.457.457-.457h1.933c.253 0 .458.205.458.457v1.339a.458.458 0 01-.458.457h-1.933a.457.457 0 01-.457-.457zm0-2.977v-1.339c0-.253.205-.458.457-.458h1.933c.253 0 .458.205.458.458v1.339a.458.458 0 01-.458.458h-1.933a.458.458 0 01-.457-.458zm5.576 21.756h-5.324v-9.924c.665-.378 1.603-.624 2.662-.632 1.06.008 1.998.253 2.662.632v9.924zm-.139-24.226h-1.397l-4.387-3.301-4.387 3.301h-1.397a.18.18 0 01-.123-.312l5.573-4.409a.489.489 0 01.668 0l5.573 4.409a.18.18 0 01-.123.312zm6.991 24.226h-5.278v-9.924c.659-.375 1.589-.62 2.639-.631 1.05.011 1.979.255 2.639.631v9.924zm6.898 0h-5.324v-9.924c.664-.378 1.603-.624 2.662-.632 1.06.008 1.998.253 2.662.632v9.924zm.252-18.779a.457.457 0 01-.457.457h-1.933a.458.458 0 01-.458-.457V18.48c0-.252.206-.457.458-.457h1.933c.253 0 .457.205.457.457v1.339zm0-2.977a.457.457 0 01-.457.458h-1.933a.459.459 0 01-.458-.458v-1.339c0-.253.206-.458.458-.458h1.933c.253 0 .457.205.457.458v1.339zm-4.039-2.47h-1.397a.18.18 0 01-.123-.312l5.573-4.409a.489.489 0 01.668 0l5.573 4.409a.18.18 0 01-.124.312h-1.396l-4.387-3.301-4.387 3.301zm7.55 1.131v1.339a.457.457 0 01-.457.458h-1.933a.458.458 0 01-.457-.458v-1.339c0-.253.205-.458.457-.458h1.933c.253 0 .457.205.457.458zm-2.847 4.316V18.48c0-.252.205-.457.457-.457h1.933c.253 0 .457.205.457.457v1.339a.457.457 0 01-.457.457h-1.933a.458.458 0 01-.457-.457zm14.88 18.779H61.588v-9.831a9.699 9.699 0 013.736-2.328 9.768 9.768 0 012.71-.514c.305-.014.873-.014 1.178 0h-.266c.92.043 1.832.212 2.712.514a9.702 9.702 0 013.953 2.545v9.614zm15.918 0h-14.24v-9.614a9.682 9.682 0 013.952-2.545 9.782 9.782 0 013.623-.514c.92.043 1.832.212 2.712.514a9.702 9.702 0 013.953 2.545v9.614z"></path><path d="M28.092 29.003h-1.49a.353.353 0 00-.353.353v1.032c0 .195.159.353.353.353h1.49a.353.353 0 00.353-.353v-1.032a.353.353 0 00-.353-.353zM31.22 29.003h-1.49a.352.352 0 00-.353.353v1.032c0 .195.158.353.353.353h1.49a.353.353 0 00.353-.353v-1.032a.352.352 0 00-.353-.353zM34.349 29.003h-1.491a.352.352 0 00-.353.353v1.032c0 .195.158.353.353.353h1.491a.353.353 0 00.352-.353v-1.032a.353.353 0 00-.352-.353zM35.986 30.741h1.49a.352.352 0 00.352-.353v-1.032a.351.351 0 00-.352-.353h-1.49a.352.352 0 00-.353.353v1.032c0 .195.159.353.353.353zM12.208 29.003h-1.49a.352.352 0 00-.353.353v1.032c0 .195.158.353.353.353h1.49a.353.353 0 00.352-.353v-1.032a.353.353 0 00-.352-.353zM15.335 29.003h-1.49a.353.353 0 00-.353.353v1.032c0 .195.158.353.353.353h1.49a.353.353 0 00.353-.353v-1.032a.352.352 0 00-.353-.353zM18.463 29.003h-1.49a.352.352 0 00-.353.353v1.032c0 .195.158.353.353.353h1.49a.354.354 0 00.353-.353v-1.032a.352.352 0 00-.353-.353zM20.102 30.741h1.49a.353.353 0 00.353-.353v-1.032a.352.352 0 00-.353-.353h-1.49a.352.352 0 00-.353.353v1.032c0 .195.157.353.353.353zM64.537 29.003h-1.489a.354.354 0 00-.354.353v1.032c0 .195.159.353.354.353h1.489a.354.354 0 00.354-.353v-1.032a.354.354 0 00-.354-.353zM67.665 29.003h-1.49a.353.353 0 00-.352.353v1.032c0 .195.158.353.352.353h1.49a.353.353 0 00.353-.353v-1.032a.352.352 0 00-.353-.353zM70.794 29.003h-1.49a.352.352 0 00-.353.353v1.032c0 .195.157.353.353.353h1.49a.354.354 0 00.353-.353v-1.032a.354.354 0 00-.353-.353zM72.432 30.741h1.49a.353.353 0 00.353-.353v-1.032a.352.352 0 00-.353-.353h-1.49a.354.354 0 00-.354.353v1.032c0 .195.159.353.354.353zM80.456 29.003h-1.49a.353.353 0 00-.354.353v1.032c0 .195.158.353.354.353h1.49a.353.353 0 00.352-.353v-1.032a.352.352 0 00-.352-.353zM83.584 29.003h-1.49a.353.353 0 00-.353.353v1.032c0 .195.158.353.353.353h1.49a.354.354 0 00.353-.353v-1.032a.353.353 0 00-.353-.353zM86.712 29.003h-1.49a.353.353 0 00-.353.353v1.032c0 .195.158.353.353.353h1.49a.354.354 0 00.353-.353v-1.032a.354.354 0 00-.353-.353zM88.351 30.741h1.489a.354.354 0 00.353-.353v-1.032a.352.352 0 00-.353-.353h-1.489a.353.353 0 00-.354.353v1.032c0 .195.157.353.354.353z"></path></g><defs data-v-fde0c5aa=""><!----></defs><g data-v-fde0c5aa="" id="7476e149-884d-4232-8675-c6b214c53743" fill="#ffffff" transform="matrix(0.4258943634329762,0,0,0.4258943634329762,51.933560478356725,185.59738491988765)"><path d="M1.33 15.68L1.33 5.88L7.35 5.88L7.35 6.97L2.51 6.97L2.51 10.22L7.27 10.22L7.27 11.31L2.51 11.31L2.51 15.68L1.33 15.68ZM16.41 11.87L16.41 9.69Q16.41 7.78 17.32 6.73Q18.23 5.68 19.85 5.68L19.85 5.68Q21.48 5.68 22.39 6.73Q23.30 7.78 23.30 9.69L23.30 9.69L23.30 11.87Q23.30 13.83 22.39 14.85Q21.48 15.88 19.85 15.88L19.85 15.88Q18.23 15.88 17.32 14.85Q16.41 13.83 16.41 11.87L16.41 11.87ZM19.85 14.78L19.85 14.78Q20.99 14.78 21.55 14.01Q22.12 13.23 22.12 11.79L22.12 11.79L22.12 9.77Q22.12 8.43 21.55 7.60Q20.99 6.78 19.85 6.78L19.85 6.78Q18.72 6.78 18.15 7.60Q17.58 8.43 17.58 9.77L17.58 9.77L17.58 11.79Q17.58 13.23 18.15 14.01Q18.72 14.78 19.85 14.78ZM38.49 12.15L38.49 15.68L37.31 15.68L37.31 12.40Q37.31 12.04 37.14 11.84Q36.97 11.65 36.55 11.65L36.55 11.65L33.50 11.65L33.50 15.68L32.33 15.68L32.33 5.88L35.83 5.88Q36.58 5.88 37.14 6.10Q37.70 6.31 38.07 6.68Q38.44 7.04 38.63 7.53Q38.82 8.01 38.82 8.54L38.82 8.54L38.82 8.96Q38.82 9.51 38.52 10.05Q38.22 10.60 37.59 10.89L37.59 10.89L37.59 11.06Q38.01 11.13 38.25 11.40Q38.49 11.66 38.49 12.15L38.49 12.15ZM33.50 6.97L33.50 10.56L35.69 10.56Q36.68 10.56 37.16 10.13Q37.65 9.70 37.65 8.88L37.65 8.88L37.65 8.62Q37.65 7.88 37.16 7.43Q36.68 6.97 35.69 6.97L35.69 6.97L33.50 6.97ZM69.37 15.68L68.66 13.24L64.46 13.24L63.74 15.68L62.48 15.68L65.45 5.88L67.66 5.88L70.63 15.68L69.37 15.68ZM66.64 6.38L66.47 6.38L64.78 12.15L68.33 12.15L66.64 6.38ZM79.06 15.68L79.06 5.88L80.23 5.88L80.23 14.59L85.36 14.59L85.36 15.68L79.06 15.68ZM94.63 15.68L94.63 5.88L95.80 5.88L95.80 14.59L100.93 14.59L100.93 15.68L94.63 15.68ZM128.24 15.68L128.24 12.24L127.99 12.24L124.92 5.88L126.24 5.88L128.74 11.23L128.91 11.23L131.42 5.88L132.73 5.88L129.67 12.24L129.42 12.24L129.42 15.68L128.24 15.68ZM140.95 11.87L140.95 9.69Q140.95 7.78 141.86 6.73Q142.77 5.68 144.40 5.68L144.40 5.68Q146.02 5.68 146.93 6.73Q147.84 7.78 147.84 9.69L147.84 9.69L147.84 11.87Q147.84 13.83 146.93 14.85Q146.02 15.88 144.40 15.88L144.40 15.88Q142.77 15.88 141.86 14.85Q140.95 13.83 140.95 11.87L140.95 11.87ZM144.40 14.78L144.40 14.78Q145.53 14.78 146.10 14.01Q146.66 13.23 146.66 11.79L146.66 11.79L146.66 9.77Q146.66 8.43 146.10 7.60Q145.53 6.78 144.40 6.78L144.40 6.78Q143.26 6.78 142.69 7.60Q142.13 8.43 142.13 9.77L142.13 9.77L142.13 11.79Q142.13 13.23 142.69 14.01Q143.26 14.78 144.40 14.78ZM156.60 5.88L157.78 5.88L157.78 12.38Q157.78 13.57 158.33 14.17Q158.89 14.78 159.96 14.78L159.96 14.78Q161.04 14.78 161.59 14.17Q162.15 13.57 162.15 12.38L162.15 12.38L162.15 5.88L163.32 5.88L163.32 12.38Q163.32 14.08 162.43 14.98Q161.53 15.88 159.96 15.88L159.96 15.88Q158.40 15.88 157.50 14.98Q156.60 14.08 156.60 12.38L156.60 12.38L156.60 5.88ZM178.60 12.15L178.60 15.68L177.42 15.68L177.42 12.40Q177.42 12.04 177.25 11.84Q177.09 11.65 176.67 11.65L176.67 11.65L173.61 11.65L173.61 15.68L172.44 15.68L172.44 5.88L175.94 5.88Q176.69 5.88 177.25 6.10Q177.81 6.31 178.19 6.68Q178.56 7.04 178.75 7.53Q178.93 8.01 178.93 8.54L178.93 8.54L178.93 8.96Q178.93 9.51 178.63 10.05Q178.33 10.60 177.70 10.89L177.70 10.89L177.70 11.06Q178.12 11.13 178.36 11.40Q178.60 11.66 178.60 12.15L178.60 12.15ZM173.61 6.97L173.61 10.56L175.80 10.56Q176.79 10.56 177.28 10.13Q177.76 9.70 177.76 8.88L177.76 8.88L177.76 8.62Q177.76 7.88 177.28 7.43Q176.79 6.97 175.80 6.97L175.80 6.97L173.61 6.97ZM209.73 12.15L209.73 15.68L208.56 15.68L208.56 12.40Q208.56 12.04 208.39 11.84Q208.22 11.65 207.80 11.65L207.80 11.65L204.75 11.65L204.75 15.68L203.57 15.68L203.57 5.88L207.07 5.88Q207.83 5.88 208.39 6.10Q208.95 6.31 209.32 6.68Q209.69 7.04 209.88 7.53Q210.07 8.01 210.07 8.54L210.07 8.54L210.07 8.96Q210.07 9.51 209.77 10.05Q209.47 10.60 208.84 10.89L208.84 10.89L208.84 11.06Q209.26 11.13 209.50 11.40Q209.73 11.66 209.73 12.15L209.73 12.15ZM204.75 6.97L204.75 10.56L206.93 10.56Q207.93 10.56 208.41 10.13Q208.89 9.70 208.89 8.88L208.89 8.88L208.89 8.62Q208.89 7.88 208.41 7.43Q207.93 6.97 206.93 6.97L206.93 6.97L204.75 6.97ZM218.79 11.87L218.79 9.69Q218.79 7.78 219.70 6.73Q220.61 5.68 222.24 5.68L222.24 5.68Q223.86 5.68 224.77 6.73Q225.68 7.78 225.68 9.69L225.68 9.69L225.68 11.87Q225.68 13.83 224.77 14.85Q223.86 15.88 222.24 15.88L222.24 15.88Q220.61 15.88 219.70 14.85Q218.79 13.83 218.79 11.87L218.79 11.87ZM222.24 14.78L222.24 14.78Q223.37 14.78 223.94 14.01Q224.50 13.23 224.50 11.79L224.50 11.79L224.50 9.77Q224.50 8.43 223.94 7.60Q223.37 6.78 222.24 6.78L222.24 6.78Q221.10 6.78 220.54 7.60Q219.97 8.43 219.97 9.77L219.97 9.77L219.97 11.79Q219.97 13.23 220.54 14.01Q221.10 14.78 222.24 14.78ZM234.36 11.87L234.36 9.69Q234.36 7.78 235.27 6.73Q236.18 5.68 237.80 5.68L237.80 5.68Q239.43 5.68 240.34 6.73Q241.25 7.78 241.25 9.69L241.25 9.69L241.25 11.87Q241.25 13.83 240.34 14.85Q239.43 15.88 237.80 15.88L237.80 15.88Q236.18 15.88 235.27 14.85Q234.36 13.83 234.36 11.87L234.36 11.87ZM237.80 14.78L237.80 14.78Q238.94 14.78 239.51 14.01Q240.07 13.23 240.07 11.79L240.07 11.79L240.07 9.77Q240.07 8.43 239.51 7.60Q238.94 6.78 237.80 6.78L237.80 6.78Q236.67 6.78 236.10 7.60Q235.54 8.43 235.54 9.77L235.54 9.77L235.54 11.79Q235.54 13.23 236.10 14.01Q236.67 14.78 237.80 14.78ZM250.42 15.68L250.42 5.88L256.44 5.88L256.44 6.97L251.59 6.97L251.59 10.22L256.35 10.22L256.35 11.31L251.59 11.31L251.59 15.68L250.42 15.68ZM271.25 9.21L271.25 8.71Q271.25 8.23 271.06 7.87Q270.87 7.50 270.55 7.27Q270.23 7.03 269.81 6.90Q269.39 6.78 268.93 6.78L268.93 6.78Q268.52 6.78 268.16 6.88Q267.79 6.99 267.51 7.18Q267.22 7.38 267.05 7.66Q266.88 7.95 266.88 8.33L266.88 8.33L266.88 8.41Q266.88 8.82 267.05 9.11Q267.22 9.39 267.55 9.60Q267.88 9.80 268.37 9.93Q268.86 10.07 269.51 10.16L269.51 10.16Q271.05 10.40 271.78 11.07Q272.51 11.73 272.51 12.85L272.51 12.85L272.51 13.02Q272.51 13.65 272.29 14.17Q272.08 14.70 271.65 15.08Q271.22 15.46 270.59 15.67Q269.96 15.88 269.14 15.88L269.14 15.88Q268.20 15.88 267.48 15.60Q266.76 15.33 266.27 14.85Q265.79 14.36 265.54 13.71Q265.29 13.06 265.29 12.29L265.29 12.29L265.29 11.87L266.46 11.87L266.46 12.21Q266.46 13.50 267.17 14.14Q267.88 14.78 269.14 14.78L269.14 14.78Q270.23 14.78 270.78 14.30Q271.33 13.82 271.33 13.02L271.33 13.02L271.33 12.94Q271.33 12.17 270.77 11.76Q270.20 11.35 268.93 11.17L268.93 11.17Q268.18 11.07 267.59 10.87Q266.99 10.67 266.57 10.34Q266.15 10.01 265.93 9.55Q265.71 9.09 265.71 8.46L265.71 8.46L265.71 8.29Q265.71 7.71 265.94 7.24Q266.18 6.76 266.61 6.41Q267.04 6.06 267.63 5.87Q268.23 5.68 268.94 5.68L268.94 5.68Q269.77 5.68 270.42 5.92Q271.07 6.16 271.52 6.56Q271.96 6.96 272.20 7.50Q272.43 8.04 272.43 8.62L272.43 8.62L272.43 9.21L271.25 9.21ZM302.89 15.68L302.18 13.24L297.98 13.24L297.26 15.68L296.00 15.68L298.97 5.88L301.18 5.88L304.15 15.68L302.89 15.68ZM300.16 6.38L299.99 6.38L298.30 12.15L301.85 12.15L300.16 6.38ZM314.73 5.88L317.56 15.18L317.73 15.18L317.73 5.88L318.91 5.88L318.91 15.68L316.55 15.68L313.73 6.38L313.56 6.38L313.56 15.68L312.38 15.68L312.38 5.88L314.73 5.88ZM327.95 6.97L327.95 5.88L331.17 5.88Q332.99 5.88 333.83 6.75Q334.67 7.62 334.67 9.52L334.67 9.52L334.67 12.04Q334.67 13.94 333.83 14.81Q332.99 15.68 331.17 15.68L331.17 15.68L327.95 15.68L327.95 14.57L328.79 14.57L328.79 6.97L327.95 6.97ZM329.97 14.59L331.00 14.59Q331.65 14.59 332.12 14.46Q332.58 14.34 332.89 14.04Q333.20 13.73 333.35 13.23Q333.49 12.73 333.49 11.96L333.49 11.96L333.49 9.60Q333.49 8.83 333.35 8.33Q333.20 7.83 332.89 7.53Q332.58 7.22 332.12 7.10Q331.65 6.97 331.00 6.97L331.00 6.97L329.97 6.97L329.97 14.59ZM362.40 14.78L362.40 14.78Q363.01 14.78 363.43 14.58Q363.86 14.38 364.13 14.04Q364.41 13.69 364.54 13.25Q364.67 12.81 364.67 12.32L364.67 12.32L364.67 12.15L365.85 12.15L365.85 12.32Q365.85 13.06 365.62 13.71Q365.40 14.36 364.97 14.85Q364.53 15.33 363.89 15.60Q363.24 15.88 362.40 15.88L362.40 15.88Q360.78 15.88 359.87 14.85Q358.96 13.83 358.96 11.87L358.96 11.87L358.96 9.69Q358.96 7.78 359.87 6.73Q360.78 5.68 362.40 5.68L362.40 5.68Q363.24 5.68 363.89 5.96Q364.53 6.23 364.97 6.71Q365.40 7.20 365.62 7.85Q365.85 8.50 365.85 9.24L365.85 9.24L365.85 9.41L364.67 9.41L364.67 9.24Q364.66 8.76 364.52 8.32Q364.39 7.87 364.12 7.53Q363.85 7.18 363.43 6.98Q363.01 6.78 362.40 6.78L362.40 6.78Q361.27 6.78 360.70 7.60Q360.14 8.43 360.14 9.77L360.14 9.77L360.14 11.79Q360.14 13.23 360.70 14.01Q361.27 14.78 362.40 14.78ZM374.95 15.68L374.95 5.88L380.88 5.88L380.88 6.97L376.12 6.97L376.12 10.22L380.80 10.22L380.80 11.31L376.12 11.31L376.12 14.59L380.97 14.59L380.97 15.68L374.95 15.68ZM390.38 6.97L390.38 5.88L396.59 5.88L396.59 6.97L394.07 6.97L394.07 14.59L396.59 14.59L396.59 15.68L390.38 15.68L390.38 14.59L392.90 14.59L392.90 6.97L390.38 6.97ZM405.99 15.68L405.99 5.88L407.16 5.88L407.16 14.59L412.29 14.59L412.29 15.68L405.99 15.68ZM421.51 6.97L421.51 5.88L427.73 5.88L427.73 6.97L425.21 6.97L425.21 14.59L427.73 14.59L427.73 15.68L421.51 15.68L421.51 14.59L424.03 14.59L424.03 6.97L421.51 6.97ZM439.28 5.88L442.11 15.18L442.27 15.18L442.27 5.88L443.45 5.88L443.45 15.68L441.10 15.68L438.27 6.38L438.10 6.38L438.10 15.68L436.93 15.68L436.93 5.88L439.28 5.88ZM454.82 12.07L454.82 10.98L459.19 10.98L459.19 15.68L458.09 15.68L458.09 14.50L457.93 14.50Q457.69 15.12 457.09 15.50Q456.48 15.88 455.69 15.88L455.69 15.88Q454.10 15.88 453.20 14.85Q452.30 13.83 452.30 11.87L452.30 11.87L452.30 9.69Q452.30 7.78 453.21 6.73Q454.12 5.68 455.74 5.68L455.74 5.68Q456.58 5.68 457.23 5.96Q457.87 6.23 458.30 6.71Q458.74 7.20 458.96 7.85Q459.19 8.50 459.19 9.24L459.19 9.24L459.19 9.41L458.01 9.41L458.01 9.24Q458.01 8.76 457.88 8.32Q457.74 7.87 457.47 7.53Q457.20 7.18 456.77 6.98Q456.34 6.78 455.74 6.78L455.74 6.78Q454.61 6.78 454.04 7.60Q453.47 8.43 453.47 9.77L453.47 9.77L453.47 11.79Q453.47 13.23 454.04 14.01Q454.61 14.78 455.77 14.78L455.77 14.78Q456.82 14.78 457.41 14.11Q458.01 13.44 458.01 12.24L458.01 12.24L458.01 12.07L454.82 12.07Z"></path></g></svg>