<svg data-v-423bf9ae="" xmlns="http://www.w3.org/2000/svg" viewBox="0 0 723.067822309935 60" class="font"><!----><!----><!----><g data-v-423bf9ae="" id="001ccdd0-a1d6-4698-9be5-65b8e23c983f" fill="black" transform="matrix(5.029337675202678,0,0,5.029337675202678,-4.576691919098948,-38.87677984840654)"><path d="M6.50 17.02Q5.99 17.22 5.43 17.30Q4.87 17.39 4.12 17.39L4.12 17.39Q2.79 17.39 2.11 16.99Q1.44 16.59 1.18 15.63Q0.91 14.67 0.91 12.81L0.91 12.81Q0.91 10.93 1.18 9.97Q1.46 9.00 2.16 8.61Q2.87 8.22 4.26 8.22L4.26 8.22Q4.73 8.22 5.34 8.30Q5.95 8.39 6.31 8.51L6.31 8.51L6.13 9.66Q5.64 9.55 5.00 9.48Q4.35 9.41 3.95 9.41L3.95 9.41Q3.09 9.41 2.75 9.62Q2.41 9.83 2.41 10.47L2.41 10.47L2.41 16.02Q3.12 16.23 4.07 16.23L4.07 16.23Q5.17 16.23 6.36 15.88L6.36 15.88L6.50 17.02ZM13.65 10.18L13.65 17.18L13.01 17.18L12.63 16.48Q12.07 16.91 11.40 17.12Q10.74 17.32 9.88 17.32L9.88 17.32Q8.93 17.32 8.48 16.96Q8.04 16.60 8.04 15.85L8.04 15.85L8.04 10.18L9.44 10.18L9.44 16.24L11.06 16.24Q11.75 16.24 12.00 16.07Q12.25 15.90 12.25 15.43L12.25 15.43L12.25 10.18L13.65 10.18ZM15.69 12.05Q15.69 10.98 16.33 10.47Q16.97 9.97 18.34 9.97L18.34 9.97Q19.56 9.97 20.66 10.28L20.66 10.28L20.47 11.30Q20.12 11.20 19.64 11.14Q19.17 11.07 18.76 11.07L18.76 11.07Q17.92 11.07 17.16 11.20L17.16 11.20L17.16 12.85Q18.84 13.09 19.64 13.34Q20.43 13.58 20.72 13.99Q21.01 14.41 21.01 15.20L21.01 15.20Q21.01 16.00 20.73 16.48Q20.44 16.95 19.80 17.17Q19.15 17.39 18.07 17.39L18.07 17.39Q16.87 17.39 15.54 16.98L15.54 16.98L15.76 15.86Q16.84 16.28 18.06 16.28L18.06 16.28Q18.48 16.28 18.80 16.24Q19.12 16.20 19.54 16.09L19.54 16.09L19.54 14.43Q17.74 14.18 16.97 13.94Q16.20 13.71 15.95 13.31Q15.69 12.91 15.69 12.05L15.69 12.05ZM25.97 11.14L24.72 11.14L24.72 16.14Q25.23 16.20 25.72 16.21L25.72 16.21L25.63 17.16Q24.85 17.32 24.36 17.32L24.36 17.32Q23.83 17.32 23.58 17.06Q23.32 16.80 23.32 16.27L23.32 16.27L23.32 11.14L22.34 11.14L22.34 10.18L23.32 10.18L23.32 8.68L24.72 8.33L24.72 10.18L25.97 10.18L25.97 11.14ZM30.48 17.32Q29.22 17.32 28.58 17.02Q27.94 16.72 27.69 15.95Q27.44 15.18 27.44 13.68L27.44 13.68Q27.44 12.18 27.69 11.41Q27.94 10.64 28.58 10.34Q29.22 10.04 30.48 10.04L30.48 10.04Q31.75 10.04 32.38 10.34Q33.01 10.64 33.26 11.40Q33.52 12.17 33.52 13.68L33.52 13.68Q33.52 15.18 33.26 15.95Q33.01 16.72 32.38 17.02Q31.74 17.32 30.48 17.32L30.48 17.32ZM28.90 16.17L31.39 16.17Q31.79 16.17 31.93 16.10Q32.06 16.03 32.06 15.82L32.06 15.82L32.06 11.19L29.57 11.19Q29.16 11.19 29.03 11.26Q28.90 11.33 28.90 11.54L28.90 11.54L28.90 16.17ZM43.16 10.04Q44.14 10.04 44.65 10.34Q45.15 10.64 45.15 11.23L45.15 11.23L45.15 17.18L43.75 17.18L43.75 11.19L42.27 11.19Q41.65 11.19 41.40 11.31Q41.15 11.44 41.09 11.77L41.09 11.77L41.09 17.18L39.69 17.18L39.69 11.19L38.21 11.19Q37.52 11.19 37.27 11.35Q37.02 11.52 37.02 12.00L37.02 12.00L37.02 17.18L35.62 17.18L35.62 10.18L36.26 10.18L36.64 10.88Q37.14 10.44 37.74 10.24Q38.33 10.04 39.10 10.04L39.10 10.04Q40.54 10.04 40.95 10.68L40.95 10.68Q41.86 10.04 43.16 10.04L43.16 10.04ZM52.84 17.02Q52.33 17.22 51.77 17.30Q51.21 17.39 50.46 17.39L50.46 17.39Q49.13 17.39 48.45 16.99Q47.78 16.59 47.52 15.63Q47.25 14.67 47.25 12.81L47.25 12.81Q47.25 10.93 47.52 9.97Q47.80 9.00 48.50 8.61Q49.21 8.22 50.60 8.22L50.60 8.22Q51.07 8.22 51.68 8.30Q52.29 8.39 52.65 8.51L52.65 8.51L52.47 9.66Q51.98 9.55 51.34 9.48Q50.69 9.41 50.29 9.41L50.29 9.41Q49.43 9.41 49.09 9.62Q48.75 9.83 48.75 10.47L48.75 10.47L48.75 16.02Q49.46 16.23 50.41 16.23L50.41 16.23Q51.51 16.23 52.70 15.88L52.70 15.88L52.84 17.02ZM55.10 10.18L55.59 11.28Q56.22 10.72 56.67 10.42Q57.12 10.11 57.51 9.97L57.51 9.97L57.65 11.34Q57.19 11.48 56.69 11.73Q56.20 11.97 55.85 12.24L55.85 12.24L55.85 17.18L54.45 17.18L54.45 10.18L55.10 10.18ZM61.73 10.04Q62.69 10.04 63.25 10.23Q63.81 10.42 64.06 10.84Q64.30 11.27 64.30 12.00L64.30 12.00L64.30 17.18L63.66 17.18L63.28 16.48Q62.78 16.91 62.17 17.12Q61.56 17.32 60.77 17.32L60.77 17.32Q59.61 17.32 59.12 16.84Q58.63 16.35 58.63 15.22L58.63 15.22Q58.63 14.20 58.91 13.75Q59.19 13.30 60.01 13.15Q60.83 12.99 62.69 12.99L62.69 12.99L62.90 12.99L62.90 11.30Q62.38 11.14 61.49 11.14L61.49 11.14Q60.37 11.14 59.12 11.48L59.12 11.48L58.94 10.46Q59.46 10.28 60.23 10.16Q61.00 10.04 61.73 10.04L61.73 10.04ZM61.78 16.24Q62.44 16.24 62.67 16.07Q62.90 15.90 62.90 15.43L62.90 15.43L62.90 13.90L61.04 13.90Q60.38 13.90 60.14 14.07Q59.91 14.24 59.91 14.71L59.91 14.71L59.91 16.24L61.78 16.24ZM70.07 8.88L68.57 8.75L68.57 10.18L69.69 10.18L69.69 11.14L68.57 11.14L68.57 17.18L67.17 17.18L67.17 11.14L66.19 11.14L66.19 10.18L67.17 10.18Q67.23 9.21 67.40 8.69Q67.56 8.16 67.91 7.95Q68.25 7.73 68.87 7.73L68.87 7.73Q69.54 7.73 70.15 7.87L70.15 7.87L70.07 8.88ZM74.48 11.14L73.23 11.14L73.23 16.14Q73.74 16.20 74.23 16.21L74.23 16.21L74.14 17.16Q73.36 17.32 72.87 17.32L72.87 17.32Q72.34 17.32 72.09 17.06Q71.83 16.80 71.83 16.27L71.83 16.27L71.83 11.14L70.85 11.14L70.85 10.18L71.83 10.18L71.83 8.68L73.23 8.33L73.23 10.18L74.48 10.18L74.48 11.14ZM85.11 17.02Q84.60 17.22 84.04 17.30Q83.48 17.39 82.73 17.39L82.73 17.39Q81.40 17.39 80.72 16.99Q80.05 16.59 79.79 15.63Q79.52 14.67 79.52 12.81L79.52 12.81Q79.52 10.93 79.79 9.97Q80.07 9.00 80.77 8.61Q81.48 8.22 82.87 8.22L82.87 8.22Q83.34 8.22 83.95 8.30Q84.56 8.39 84.92 8.51L84.92 8.51L84.74 9.66Q84.25 9.55 83.61 9.48Q82.96 9.41 82.56 9.41L82.56 9.41Q81.70 9.41 81.36 9.62Q81.02 9.83 81.02 10.47L81.02 10.47L81.02 16.02Q81.73 16.23 82.68 16.23L82.68 16.23Q83.78 16.23 84.97 15.88L84.97 15.88L85.11 17.02ZM89.32 10.04Q90.29 10.04 90.85 10.23Q91.41 10.42 91.65 10.84Q91.90 11.27 91.90 12.00L91.90 12.00L91.90 17.18L91.25 17.18L90.87 16.48Q90.37 16.91 89.76 17.12Q89.15 17.32 88.37 17.32L88.37 17.32Q87.21 17.32 86.72 16.84Q86.23 16.35 86.23 15.22L86.23 15.22Q86.23 14.20 86.51 13.75Q86.79 13.30 87.61 13.15Q88.42 12.99 90.29 12.99L90.29 12.99L90.50 12.99L90.50 11.30Q89.98 11.14 89.08 11.14L89.08 11.14Q87.96 11.14 86.72 11.48L86.72 11.48L86.53 10.46Q87.05 10.28 87.82 10.16Q88.59 10.04 89.32 10.04L89.32 10.04ZM89.38 16.24Q90.03 16.24 90.27 16.07Q90.50 15.90 90.50 15.43L90.50 15.43L90.50 13.90L88.63 13.90Q87.98 13.90 87.74 14.07Q87.50 14.24 87.50 14.71L87.50 14.71L87.50 16.24L89.38 16.24ZM95.00 10.18L95.49 11.28Q96.12 10.72 96.57 10.42Q97.02 10.11 97.41 9.97L97.41 9.97L97.55 11.34Q97.09 11.48 96.59 11.73Q96.10 11.97 95.75 12.24L95.75 12.24L95.75 17.18L94.35 17.18L94.35 10.18L95.00 10.18ZM102.37 10.04Q103.42 10.04 103.95 10.34Q104.48 10.64 104.69 11.40Q104.89 12.17 104.89 13.68L104.89 13.68Q104.89 15.20 104.68 15.98Q104.47 16.76 103.94 17.07Q103.40 17.39 102.37 17.39L102.37 17.39Q101.67 17.39 101.21 17.31Q100.74 17.23 100.42 17.05L100.42 17.05L100.42 19.49L99.02 19.66L99.02 10.18L99.67 10.18L99.99 10.77Q100.28 10.35 100.83 10.19Q101.37 10.04 102.37 10.04L102.37 10.04ZM103.42 15.89L103.42 11.19L101.07 11.19Q100.70 11.19 100.56 11.25Q100.42 11.31 100.42 11.47L100.42 11.47L100.42 16.24L102.77 16.24Q103.15 16.24 103.28 16.17Q103.42 16.10 103.42 15.89L103.42 15.89ZM109.54 16.21Q110.11 16.21 110.66 16.14Q111.20 16.06 111.96 15.88L111.96 15.88L112.14 16.90Q111.62 17.09 110.86 17.21Q110.10 17.32 109.28 17.32L109.28 17.32Q108.19 17.32 107.62 17.00Q107.04 16.69 106.81 15.92Q106.57 15.15 106.57 13.68L106.57 13.68Q106.57 12.26 106.84 11.49Q107.11 10.71 107.74 10.37Q108.37 10.04 109.52 10.04L109.52 10.04Q110.66 10.04 111.25 10.22Q111.85 10.40 112.08 10.84Q112.32 11.28 112.32 12.14L112.32 12.14Q112.32 13.16 112.03 13.61Q111.73 14.06 110.87 14.21Q110.01 14.36 108.04 14.36L108.04 14.36L108.04 16.06Q108.60 16.21 109.54 16.21L109.54 16.21ZM109.20 11.19Q108.53 11.19 108.28 11.35Q108.04 11.52 108.04 12.00L108.04 12.00L108.04 13.45L109.89 13.45Q110.57 13.45 110.82 13.29Q111.06 13.12 111.06 12.64L111.06 12.64L111.06 11.19L109.20 11.19ZM114.56 17.18L114.56 10.18L115.21 10.18L115.58 10.88Q116.12 10.44 116.75 10.24Q117.38 10.04 118.19 10.04L118.19 10.04Q119.17 10.04 119.67 10.34Q120.18 10.64 120.18 11.23L120.18 11.23L120.18 17.18L118.78 17.18L118.78 11.19L117.15 11.19Q116.47 11.19 116.21 11.35Q115.96 11.52 115.96 12.00L115.96 12.00L115.96 17.18L114.56 17.18ZM125.69 11.14L124.45 11.14L124.45 16.14Q124.95 16.20 125.44 16.21L125.44 16.21L125.36 17.16Q124.57 17.32 124.08 17.32L124.08 17.32Q123.55 17.32 123.30 17.06Q123.05 16.80 123.05 16.27L123.05 16.27L123.05 11.14L122.07 11.14L122.07 10.18L123.05 10.18L123.05 8.68L124.45 8.33L124.45 10.18L125.69 10.18L125.69 11.14ZM130.13 16.21Q130.70 16.21 131.25 16.14Q131.80 16.06 132.55 15.88L132.55 15.88L132.73 16.90Q132.22 17.09 131.45 17.21Q130.69 17.32 129.88 17.32L129.88 17.32Q128.79 17.32 128.21 17.00Q127.64 16.69 127.40 15.92Q127.16 15.15 127.16 13.68L127.16 13.68Q127.16 12.26 127.43 11.49Q127.71 10.71 128.34 10.37Q128.97 10.04 130.12 10.04L130.12 10.04Q131.25 10.04 131.84 10.22Q132.44 10.40 132.68 10.84Q132.92 11.28 132.92 12.14L132.92 12.14Q132.92 13.16 132.62 13.61Q132.33 14.06 131.47 14.21Q130.61 14.36 128.63 14.36L128.63 14.36L128.63 16.06Q129.19 16.21 130.13 16.21L130.13 16.21ZM129.79 11.19Q129.12 11.19 128.88 11.35Q128.63 11.52 128.63 12.00L128.63 12.00L128.63 13.45L130.48 13.45Q131.17 13.45 131.41 13.29Q131.66 13.12 131.66 12.64L131.66 12.64L131.66 11.19L129.79 11.19ZM135.81 10.18L136.30 11.28Q136.93 10.72 137.38 10.42Q137.83 10.11 138.22 9.97L138.22 9.97L138.36 11.34Q137.90 11.48 137.40 11.73Q136.91 11.97 136.56 12.24L136.56 12.24L136.56 17.18L135.16 17.18L135.16 10.18L135.81 10.18ZM139.36 12.05Q139.36 10.98 139.99 10.47Q140.63 9.97 142.00 9.97L142.00 9.97Q143.22 9.97 144.33 10.28L144.33 10.28L144.13 11.30Q143.78 11.20 143.30 11.14Q142.83 11.07 142.42 11.07L142.42 11.07Q141.58 11.07 140.83 11.20L140.83 11.20L140.83 12.85Q142.51 13.09 143.30 13.34Q144.09 13.58 144.38 13.99Q144.68 14.41 144.68 15.20L144.68 15.20Q144.68 16.00 144.39 16.48Q144.10 16.95 143.46 17.17Q142.81 17.39 141.74 17.39L141.74 17.39Q140.53 17.39 139.20 16.98L139.20 16.98L139.43 15.86Q140.50 16.28 141.72 16.28L141.72 16.28Q142.14 16.28 142.46 16.24Q142.79 16.20 143.21 16.09L143.21 16.09L143.21 14.43Q141.40 14.18 140.63 13.94Q139.86 13.71 139.61 13.31Q139.36 12.91 139.36 12.05L139.36 12.05Z"></path></g><!----><!----></svg>